<mxfile host="app.diagrams.net" modified="2024-01-22T07:14:48.273Z" agent="Mozilla/5.0 (Macintosh; Intel Mac OS X 10_15_7) AppleWebKit/537.36 (KHTML, like Gecko) Chrome/111.0.0.0 Safari/537.36 Edg/111.0.1661.44" version="22.1.21" etag="91UHy13wXG1_gBD1t7a4" type="github">
  <diagram name="第 1 页" id="snTwrFI52ZrhYFkkU89B">
    <mxGraphModel>
      <root>
        <mxCell id="0" />
        <mxCell id="1" parent="0" />
      </root>
    </mxGraphModel>
  </diagram>
</mxfile>
